<svg xmlns="http://www.w3.org/2000/svg" version="1.1" xmlns:xlink="http://www.w3.org/1999/xlink" xmlns:svgjs="http://svgjs.dev/svgjs" width="1440" height="560" preserveAspectRatio="none" viewBox="0 0 1440 560"><g mask="url(&quot;#SvgjsMask1010&quot;)" fill="none"><rect width="1440" height="560" x="0" y="0" fill="rgba(0, 0, 0, 1)"></rect><path d="M-77.09 410.21L-77.09 410.21" stroke="rgba(26, 132, 38, 1)" stroke-width="1.5"></path><path d="M-77.09 410.21L-92.24 528.82" stroke="rgba(26, 132, 38, 1)" stroke-width="1.5"></path><path d="M-77.09 410.21L68.64 491.11" stroke="rgba(26, 132, 38, 1)" stroke-width="1.5"></path><path d="M-77.09 410.21L95.72 356.13" stroke="rgba(26, 132, 38, 1)" stroke-width="1.5"></path><path d="M-77.09 410.21L56.48 664.82" stroke="rgba(26, 132, 38, 1)" stroke-width="1.5"></path><path d="M-77.09 410.21L204.51 496.78" stroke="rgba(26, 132, 38, 1)" stroke-width="1.5"></path><path d="M-77.09 410.21L-85.9 712.4" stroke="rgba(26, 132, 38, 1)" stroke-width="1.5"></path><path d="M-92.24 528.82L-92.24 528.82" stroke="rgba(26, 132, 38, 1)" stroke-width="1.5"></path><path d="M-92.24 528.82L68.64 491.11" stroke="rgba(26, 132, 38, 1)" stroke-width="1.5"></path><path d="M-92.24 528.82L-85.9 712.4" stroke="rgba(26, 132, 38, 1)" stroke-width="1.5"></path><path d="M-92.24 528.82L56.48 664.82" stroke="rgba(26, 132, 38, 1)" stroke-width="1.5"></path><path d="M-85.9 712.4L-85.9 712.4" stroke="rgba(26, 132, 38, 1)" stroke-width="1.5"></path><path d="M-85.9 712.4L56.48 664.82" stroke="rgba(26, 132, 38, 1)" stroke-width="1.5"></path><path d="M-85.9 712.4L68.64 491.11" stroke="rgba(26, 132, 38, 1)" stroke-width="1.5"></path><path d="M95.72 356.13L95.72 356.13" stroke="rgba(26, 132, 38, 1)" stroke-width="1.5"></path><path d="M95.72 356.13L68.64 491.11" stroke="rgba(26, 132, 38, 1)" stroke-width="1.5"></path><path d="M95.72 356.13L239.58 349.77" stroke="rgba(26, 132, 38, 1)" stroke-width="1.5"></path><path d="M95.72 356.13L204.51 496.78" stroke="rgba(26, 132, 38, 1)" stroke-width="1.5"></path><path d="M95.72 356.13L-92.24 528.82" stroke="rgba(26, 132, 38, 1)" stroke-width="1.5"></path><path d="M68.64 491.11L68.64 491.11" stroke="rgba(26, 132, 38, 1)" stroke-width="1.5"></path><path d="M68.64 491.11L204.51 496.78" stroke="rgba(26, 132, 38, 1)" stroke-width="1.5"></path><path d="M56.48 664.82L56.48 664.82" stroke="rgba(26, 132, 38, 1)" stroke-width="1.5"></path><path d="M56.48 664.82L68.64 491.11" stroke="rgba(26, 132, 38, 1)" stroke-width="1.5"></path><path d="M56.48 664.82L258.59 646.55" stroke="rgba(26, 132, 38, 1)" stroke-width="1.5"></path><path d="M56.48 664.82L204.51 496.78" stroke="rgba(26, 132, 38, 1)" stroke-width="1.5"></path><path d="M239.58 349.77L239.58 349.77" stroke="rgba(26, 132, 38, 1)" stroke-width="1.5"></path><path d="M239.58 349.77L204.51 496.78" stroke="rgba(26, 132, 38, 1)" stroke-width="1.5"></path><path d="M239.58 349.77L380.85 405.78" stroke="rgba(26, 132, 38, 1)" stroke-width="1.5"></path><path d="M239.58 349.77L68.64 491.11" stroke="rgba(26, 132, 38, 1)" stroke-width="1.5"></path><path d="M239.58 349.77L368.29 559.55" stroke="rgba(26, 132, 38, 1)" stroke-width="1.5"></path><path d="M239.58 349.77L258.59 646.55" stroke="rgba(26, 132, 38, 1)" stroke-width="1.5"></path><path d="M204.51 496.78L204.51 496.78" stroke="rgba(26, 132, 38, 1)" stroke-width="1.5"></path><path d="M204.51 496.78L258.59 646.55" stroke="rgba(26, 132, 38, 1)" stroke-width="1.5"></path><path d="M204.51 496.78L368.29 559.55" stroke="rgba(26, 132, 38, 1)" stroke-width="1.5"></path><path d="M258.59 646.55L258.59 646.55" stroke="rgba(26, 132, 38, 1)" stroke-width="1.5"></path><path d="M258.59 646.55L387.97 649.22" stroke="rgba(26, 132, 38, 1)" stroke-width="1.5"></path><path d="M258.59 646.55L368.29 559.55" stroke="rgba(26, 132, 38, 1)" stroke-width="1.5"></path><path d="M258.59 646.55L68.64 491.11" stroke="rgba(26, 132, 38, 1)" stroke-width="1.5"></path><path d="M380.85 405.78L380.85 405.78" stroke="rgba(26, 132, 38, 1)" stroke-width="1.5"></path><path d="M380.85 405.78L501.08 501.15" stroke="rgba(26, 132, 38, 1)" stroke-width="1.5"></path><path d="M380.85 405.78L368.29 559.55" stroke="rgba(26, 132, 38, 1)" stroke-width="1.5"></path><path d="M368.29 559.55L368.29 559.55" stroke="rgba(26, 132, 38, 1)" stroke-width="1.5"></path><path d="M368.29 559.55L387.97 649.22" stroke="rgba(26, 132, 38, 1)" stroke-width="1.5"></path><path d="M387.97 649.22L387.97 649.22" stroke="rgba(26, 132, 38, 1)" stroke-width="1.5"></path><path d="M387.97 649.22L508.14 652.03" stroke="rgba(26, 132, 38, 1)" stroke-width="1.5"></path><path d="M387.97 649.22L501.08 501.15" stroke="rgba(26, 132, 38, 1)" stroke-width="1.5"></path><path d="M387.97 649.22L204.51 496.78" stroke="rgba(26, 132, 38, 1)" stroke-width="1.5"></path><path d="M387.97 649.22L380.85 405.78" stroke="rgba(26, 132, 38, 1)" stroke-width="1.5"></path><path d="M501.08 501.15L501.08 501.15" stroke="rgba(26, 132, 38, 1)" stroke-width="1.5"></path><path d="M501.08 501.15L368.29 559.55" stroke="rgba(26, 132, 38, 1)" stroke-width="1.5"></path><path d="M501.08 501.15L508.14 652.03" stroke="rgba(26, 132, 38, 1)" stroke-width="1.5"></path><path d="M501.08 501.15L684.96 530.69" stroke="rgba(26, 132, 38, 1)" stroke-width="1.5"></path><path d="M508.14 652.03L508.14 652.03" stroke="rgba(26, 132, 38, 1)" stroke-width="1.5"></path><path d="M508.14 652.03L368.29 559.55" stroke="rgba(26, 132, 38, 1)" stroke-width="1.5"></path><path d="M508.14 652.03L698.29 694.21" stroke="rgba(26, 132, 38, 1)" stroke-width="1.5"></path><path d="M508.14 652.03L684.96 530.69" stroke="rgba(26, 132, 38, 1)" stroke-width="1.5"></path><path d="M673.98 362.16L673.98 362.16" stroke="rgba(26, 132, 38, 1)" stroke-width="1.5"></path><path d="M673.98 362.16L821.84 408.53" stroke="rgba(26, 132, 38, 1)" stroke-width="1.5"></path><path d="M673.98 362.16L684.96 530.69" stroke="rgba(26, 132, 38, 1)" stroke-width="1.5"></path><path d="M673.98 362.16L813.26 259.03" stroke="rgba(26, 132, 38, 1)" stroke-width="1.5"></path><path d="M673.98 362.16L501.08 501.15" stroke="rgba(26, 132, 38, 1)" stroke-width="1.5"></path><path d="M684.96 530.69L684.96 530.69" stroke="rgba(26, 132, 38, 1)" stroke-width="1.5"></path><path d="M684.96 530.69L847.91 522.45" stroke="rgba(26, 132, 38, 1)" stroke-width="1.5"></path><path d="M684.96 530.69L698.29 694.21" stroke="rgba(26, 132, 38, 1)" stroke-width="1.5"></path><path d="M684.96 530.69L832.25 639.08" stroke="rgba(26, 132, 38, 1)" stroke-width="1.5"></path><path d="M684.96 530.69L821.84 408.53" stroke="rgba(26, 132, 38, 1)" stroke-width="1.5"></path><path d="M698.29 694.21L698.29 694.21" stroke="rgba(26, 132, 38, 1)" stroke-width="1.5"></path><path d="M698.29 694.21L832.25 639.08" stroke="rgba(26, 132, 38, 1)" stroke-width="1.5"></path><path d="M698.29 694.21L847.91 522.45" stroke="rgba(26, 132, 38, 1)" stroke-width="1.5"></path><path d="M698.29 694.21L957.85 641.33" stroke="rgba(26, 132, 38, 1)" stroke-width="1.5"></path><path d="M813.26 259.03L813.26 259.03" stroke="rgba(26, 132, 38, 1)" stroke-width="1.5"></path><path d="M813.26 259.03L821.84 408.53" stroke="rgba(26, 132, 38, 1)" stroke-width="1.5"></path><path d="M813.26 259.03L975.34 233.7" stroke="rgba(26, 132, 38, 1)" stroke-width="1.5"></path><path d="M821.84 408.53L821.84 408.53" stroke="rgba(26, 132, 38, 1)" stroke-width="1.5"></path><path d="M821.84 408.53L847.91 522.45" stroke="rgba(26, 132, 38, 1)" stroke-width="1.5"></path><path d="M821.84 408.53L955.17 348.98" stroke="rgba(26, 132, 38, 1)" stroke-width="1.5"></path><path d="M847.91 522.45L847.91 522.45" stroke="rgba(26, 132, 38, 1)" stroke-width="1.5"></path><path d="M847.91 522.45L832.25 639.08" stroke="rgba(26, 132, 38, 1)" stroke-width="1.5"></path><path d="M847.91 522.45L957.85 641.33" stroke="rgba(26, 132, 38, 1)" stroke-width="1.5"></path><path d="M832.25 639.08L832.25 639.08" stroke="rgba(26, 132, 38, 1)" stroke-width="1.5"></path><path d="M832.25 639.08L957.85 641.33" stroke="rgba(26, 132, 38, 1)" stroke-width="1.5"></path><path d="M832.25 639.08L821.84 408.53" stroke="rgba(26, 132, 38, 1)" stroke-width="1.5"></path><path d="M981.6 -45.3L981.6 -45.3" stroke="rgba(26, 132, 38, 1)" stroke-width="1.5"></path><path d="M981.6 -45.3L1094.9 -80" stroke="rgba(26, 132, 38, 1)" stroke-width="1.5"></path><path d="M981.6 -45.3L985.94 84.02" stroke="rgba(26, 132, 38, 1)" stroke-width="1.5"></path><path d="M981.6 -45.3L1104.82 101.09" stroke="rgba(26, 132, 38, 1)" stroke-width="1.5"></path><path d="M981.6 -45.3L1124.75 191.55" stroke="rgba(26, 132, 38, 1)" stroke-width="1.5"></path><path d="M981.6 -45.3L975.34 233.7" stroke="rgba(26, 132, 38, 1)" stroke-width="1.5"></path><path d="M985.94 84.02L985.94 84.02" stroke="rgba(26, 132, 38, 1)" stroke-width="1.5"></path><path d="M985.94 84.02L1104.82 101.09" stroke="rgba(26, 132, 38, 1)" stroke-width="1.5"></path><path d="M985.94 84.02L975.34 233.7" stroke="rgba(26, 132, 38, 1)" stroke-width="1.5"></path><path d="M985.94 84.02L1124.75 191.55" stroke="rgba(26, 132, 38, 1)" stroke-width="1.5"></path><path d="M985.94 84.02L1094.9 -80" stroke="rgba(26, 132, 38, 1)" stroke-width="1.5"></path><path d="M975.34 233.7L975.34 233.7" stroke="rgba(26, 132, 38, 1)" stroke-width="1.5"></path><path d="M975.34 233.7L955.17 348.98" stroke="rgba(26, 132, 38, 1)" stroke-width="1.5"></path><path d="M975.34 233.7L1124.75 191.55" stroke="rgba(26, 132, 38, 1)" stroke-width="1.5"></path><path d="M955.17 348.98L955.17 348.98" stroke="rgba(26, 132, 38, 1)" stroke-width="1.5"></path><path d="M955.17 348.98L1111.06 396.1" stroke="rgba(26, 132, 38, 1)" stroke-width="1.5"></path><path d="M957.85 641.33L957.85 641.33" stroke="rgba(26, 132, 38, 1)" stroke-width="1.5"></path><path d="M957.85 641.33L1113.56 637.62" stroke="rgba(26, 132, 38, 1)" stroke-width="1.5"></path><path d="M1094.9 -80L1094.9 -80" stroke="rgba(26, 132, 38, 1)" stroke-width="1.5"></path><path d="M1094.9 -80L1104.82 101.09" stroke="rgba(26, 132, 38, 1)" stroke-width="1.5"></path><path d="M1094.9 -80L1288.19 61.08" stroke="rgba(26, 132, 38, 1)" stroke-width="1.5"></path><path d="M1104.82 101.09L1104.82 101.09" stroke="rgba(26, 132, 38, 1)" stroke-width="1.5"></path><path d="M1104.82 101.09L1124.75 191.55" stroke="rgba(26, 132, 38, 1)" stroke-width="1.5"></path><path d="M1104.82 101.09L975.34 233.7" stroke="rgba(26, 132, 38, 1)" stroke-width="1.5"></path><path d="M1104.82 101.09L1288.19 61.08" stroke="rgba(26, 132, 38, 1)" stroke-width="1.5"></path><path d="M1124.75 191.55L1124.75 191.55" stroke="rgba(26, 132, 38, 1)" stroke-width="1.5"></path><path d="M1111.06 396.1L1111.06 396.1" stroke="rgba(26, 132, 38, 1)" stroke-width="1.5"></path><path d="M1111.06 396.1L1094.09 515.26" stroke="rgba(26, 132, 38, 1)" stroke-width="1.5"></path><path d="M1111.06 396.1L1248.85 377.8" stroke="rgba(26, 132, 38, 1)" stroke-width="1.5"></path><path d="M1094.09 515.26L1094.09 515.26" stroke="rgba(26, 132, 38, 1)" stroke-width="1.5"></path><path d="M1094.09 515.26L1113.56 637.62" stroke="rgba(26, 132, 38, 1)" stroke-width="1.5"></path><path d="M1094.09 515.26L957.85 641.33" stroke="rgba(26, 132, 38, 1)" stroke-width="1.5"></path><path d="M1094.09 515.26L1292.32 544.58" stroke="rgba(26, 132, 38, 1)" stroke-width="1.5"></path><path d="M1094.09 515.26L1248.85 377.8" stroke="rgba(26, 132, 38, 1)" stroke-width="1.5"></path><path d="M1094.09 515.26L955.17 348.98" stroke="rgba(26, 132, 38, 1)" stroke-width="1.5"></path><path d="M1113.56 637.62L1113.56 637.62" stroke="rgba(26, 132, 38, 1)" stroke-width="1.5"></path><path d="M1113.56 637.62L1243 679.4" stroke="rgba(26, 132, 38, 1)" stroke-width="1.5"></path><path d="M1113.56 637.62L1292.32 544.58" stroke="rgba(26, 132, 38, 1)" stroke-width="1.5"></path><path d="M1288.19 61.08L1288.19 61.08" stroke="rgba(26, 132, 38, 1)" stroke-width="1.5"></path><path d="M1288.19 61.08L1303.71 203.65" stroke="rgba(26, 132, 38, 1)" stroke-width="1.5"></path><path d="M1288.19 61.08L1459.42 61.65" stroke="rgba(26, 132, 38, 1)" stroke-width="1.5"></path><path d="M1303.71 203.65L1303.71 203.65" stroke="rgba(26, 132, 38, 1)" stroke-width="1.5"></path><path d="M1303.71 203.65L1396.57 226.15" stroke="rgba(26, 132, 38, 1)" stroke-width="1.5"></path><path d="M1248.85 377.8L1248.85 377.8" stroke="rgba(26, 132, 38, 1)" stroke-width="1.5"></path><path d="M1248.85 377.8L1292.32 544.58" stroke="rgba(26, 132, 38, 1)" stroke-width="1.5"></path><path d="M1248.85 377.8L1303.71 203.65" stroke="rgba(26, 132, 38, 1)" stroke-width="1.5"></path><path d="M1292.32 544.58L1292.32 544.58" stroke="rgba(26, 132, 38, 1)" stroke-width="1.5"></path><path d="M1292.32 544.58L1418.54 513.62" stroke="rgba(26, 132, 38, 1)" stroke-width="1.5"></path><path d="M1292.32 544.58L1243 679.4" stroke="rgba(26, 132, 38, 1)" stroke-width="1.5"></path><path d="M1243 679.4L1243 679.4" stroke="rgba(26, 132, 38, 1)" stroke-width="1.5"></path><path d="M1243 679.4L1449.26 694.94" stroke="rgba(26, 132, 38, 1)" stroke-width="1.5"></path><path d="M1243 679.4L1094.09 515.26" stroke="rgba(26, 132, 38, 1)" stroke-width="1.5"></path><path d="M1444.47 -61.88L1444.47 -61.88" stroke="rgba(26, 132, 38, 1)" stroke-width="1.5"></path><path d="M1444.47 -61.88L1459.42 61.65" stroke="rgba(26, 132, 38, 1)" stroke-width="1.5"></path><path d="M1444.47 -61.88L1588.11 -83.2" stroke="rgba(26, 132, 38, 1)" stroke-width="1.5"></path><path d="M1459.42 61.65L1459.42 61.65" stroke="rgba(26, 132, 38, 1)" stroke-width="1.5"></path><path d="M1459.42 61.65L1547.74 104.05" stroke="rgba(26, 132, 38, 1)" stroke-width="1.5"></path><path d="M1396.57 226.15L1396.57 226.15" stroke="rgba(26, 132, 38, 1)" stroke-width="1.5"></path><path d="M1396.57 226.15L1568.73 237.07" stroke="rgba(26, 132, 38, 1)" stroke-width="1.5"></path><path d="M1396.57 226.15L1459.42 61.65" stroke="rgba(26, 132, 38, 1)" stroke-width="1.5"></path><path d="M1396.57 226.15L1547.74 104.05" stroke="rgba(26, 132, 38, 1)" stroke-width="1.5"></path><path d="M1396.57 226.15L1456.42 412.39" stroke="rgba(26, 132, 38, 1)" stroke-width="1.5"></path><path d="M1396.57 226.15L1288.19 61.08" stroke="rgba(26, 132, 38, 1)" stroke-width="1.5"></path><path d="M1456.42 412.39L1456.42 412.39" stroke="rgba(26, 132, 38, 1)" stroke-width="1.5"></path><path d="M1456.42 412.39L1418.54 513.62" stroke="rgba(26, 132, 38, 1)" stroke-width="1.5"></path><path d="M1456.42 412.39L1584.91 403.74" stroke="rgba(26, 132, 38, 1)" stroke-width="1.5"></path><path d="M1456.42 412.39L1582.3 525.82" stroke="rgba(26, 132, 38, 1)" stroke-width="1.5"></path><path d="M1456.42 412.39L1568.73 237.07" stroke="rgba(26, 132, 38, 1)" stroke-width="1.5"></path><path d="M1418.54 513.62L1418.54 513.62" stroke="rgba(26, 132, 38, 1)" stroke-width="1.5"></path><path d="M1449.26 694.94L1449.26 694.94" stroke="rgba(26, 132, 38, 1)" stroke-width="1.5"></path><path d="M1449.26 694.94L1542.69 691.88" stroke="rgba(26, 132, 38, 1)" stroke-width="1.5"></path><path d="M1449.26 694.94L1418.54 513.62" stroke="rgba(26, 132, 38, 1)" stroke-width="1.5"></path><path d="M1588.11 -83.2L1588.11 -83.2" stroke="rgba(26, 132, 38, 1)" stroke-width="1.5"></path><path d="M1588.11 -83.2L1547.74 104.05" stroke="rgba(26, 132, 38, 1)" stroke-width="1.5"></path><path d="M1588.11 -83.2L1459.42 61.65" stroke="rgba(26, 132, 38, 1)" stroke-width="1.5"></path><path d="M1588.11 -83.2L1568.73 237.07" stroke="rgba(26, 132, 38, 1)" stroke-width="1.5"></path><path d="M1588.11 -83.2L1288.19 61.08" stroke="rgba(26, 132, 38, 1)" stroke-width="1.5"></path><path d="M1588.11 -83.2L1396.57 226.15" stroke="rgba(26, 132, 38, 1)" stroke-width="1.5"></path><path d="M1547.74 104.05L1547.74 104.05" stroke="rgba(26, 132, 38, 1)" stroke-width="1.5"></path><path d="M1547.74 104.05L1568.73 237.07" stroke="rgba(26, 132, 38, 1)" stroke-width="1.5"></path><path d="M1568.73 237.07L1568.73 237.07" stroke="rgba(26, 132, 38, 1)" stroke-width="1.5"></path><path d="M1568.73 237.07L1584.91 403.74" stroke="rgba(26, 132, 38, 1)" stroke-width="1.5"></path><path d="M1568.73 237.07L1459.42 61.65" stroke="rgba(26, 132, 38, 1)" stroke-width="1.5"></path><path d="M1568.73 237.07L1303.71 203.65" stroke="rgba(26, 132, 38, 1)" stroke-width="1.5"></path><path d="M1584.91 403.74L1584.91 403.74" stroke="rgba(26, 132, 38, 1)" stroke-width="1.5"></path><path d="M1584.91 403.74L1582.3 525.82" stroke="rgba(26, 132, 38, 1)" stroke-width="1.5"></path><path d="M1582.3 525.82L1582.3 525.82" stroke="rgba(26, 132, 38, 1)" stroke-width="1.5"></path><path d="M1582.3 525.82L1418.54 513.62" stroke="rgba(26, 132, 38, 1)" stroke-width="1.5"></path><path d="M1582.3 525.82L1542.69 691.88" stroke="rgba(26, 132, 38, 1)" stroke-width="1.5"></path><path d="M1542.69 691.88L1542.69 691.88" stroke="rgba(26, 132, 38, 1)" stroke-width="1.5"></path><path d="M1542.69 691.88L1418.54 513.62" stroke="rgba(26, 132, 38, 1)" stroke-width="1.5"></path><path d="M1542.69 691.88L1292.32 544.58" stroke="rgba(26, 132, 38, 1)" stroke-width="1.5"></path><path d="M1542.69 691.88L1584.91 403.74" stroke="rgba(26, 132, 38, 1)" stroke-width="1.5"></path><path d="M1542.69 691.88L1456.42 412.39" stroke="rgba(26, 132, 38, 1)" stroke-width="1.5"></path><circle r="5" cx="-77.09" cy="410.21" fill="rgba(26, 132, 38, 1)"></circle><circle r="5" cx="-92.24" cy="528.82" fill="rgba(26, 132, 38, 1)"></circle><circle r="5" cx="-85.9" cy="712.4" fill="rgba(26, 132, 38, 1)"></circle><circle r="5" cx="95.72" cy="356.13" fill="rgba(26, 132, 38, 1)"></circle><circle r="5" cx="68.64" cy="491.11" fill="rgba(26, 132, 38, 1)"></circle><circle r="5" cx="56.48" cy="664.82" fill="rgba(26, 132, 38, 1)"></circle><circle r="5" cx="239.58" cy="349.77" fill="rgba(26, 132, 38, 1)"></circle><circle r="5" cx="204.51" cy="496.78" fill="rgba(26, 132, 38, 1)"></circle><circle r="5" cx="258.59" cy="646.55" fill="rgba(26, 132, 38, 1)"></circle><circle r="5" cx="380.85" cy="405.78" fill="rgba(26, 132, 38, 1)"></circle><circle r="5" cx="368.29" cy="559.55" fill="rgba(26, 132, 38, 1)"></circle><circle r="5" cx="387.97" cy="649.22" fill="rgba(26, 132, 38, 1)"></circle><circle r="5" cx="501.08" cy="501.15" fill="rgba(26, 132, 38, 1)"></circle><circle r="5" cx="508.14" cy="652.03" fill="rgba(26, 132, 38, 1)"></circle><circle r="5" cx="673.98" cy="362.16" fill="rgba(26, 132, 38, 1)"></circle><circle r="5" cx="684.96" cy="530.69" fill="rgba(26, 132, 38, 1)"></circle><circle r="5" cx="698.29" cy="694.21" fill="rgba(26, 132, 38, 1)"></circle><circle r="5" cx="813.26" cy="259.03" fill="rgba(26, 132, 38, 1)"></circle><circle r="5" cx="821.84" cy="408.53" fill="rgba(26, 132, 38, 1)"></circle><circle r="5" cx="847.91" cy="522.45" fill="rgba(26, 132, 38, 1)"></circle><circle r="5" cx="832.25" cy="639.08" fill="rgba(26, 132, 38, 1)"></circle><circle r="5" cx="981.6" cy="-45.3" fill="rgba(26, 132, 38, 1)"></circle><circle r="5" cx="985.94" cy="84.02" fill="rgba(26, 132, 38, 1)"></circle><circle r="5" cx="975.34" cy="233.7" fill="rgba(26, 132, 38, 1)"></circle><circle r="5" cx="955.17" cy="348.98" fill="rgba(26, 132, 38, 1)"></circle><circle r="5" cx="957.85" cy="641.33" fill="rgba(26, 132, 38, 1)"></circle><circle r="5" cx="1094.9" cy="-80" fill="rgba(26, 132, 38, 1)"></circle><circle r="5" cx="1104.82" cy="101.09" fill="rgba(26, 132, 38, 1)"></circle><circle r="5" cx="1124.75" cy="191.55" fill="rgba(26, 132, 38, 1)"></circle><circle r="5" cx="1111.06" cy="396.1" fill="rgba(26, 132, 38, 1)"></circle><circle r="5" cx="1094.09" cy="515.26" fill="rgba(26, 132, 38, 1)"></circle><circle r="5" cx="1113.56" cy="637.62" fill="rgba(26, 132, 38, 1)"></circle><circle r="5" cx="1288.19" cy="61.08" fill="rgba(26, 132, 38, 1)"></circle><circle r="5" cx="1303.71" cy="203.65" fill="rgba(26, 132, 38, 1)"></circle><circle r="5" cx="1248.85" cy="377.8" fill="rgba(26, 132, 38, 1)"></circle><circle r="5" cx="1292.32" cy="544.58" fill="rgba(26, 132, 38, 1)"></circle><circle r="5" cx="1243" cy="679.4" fill="rgba(26, 132, 38, 1)"></circle><circle r="5" cx="1444.47" cy="-61.88" fill="rgba(26, 132, 38, 1)"></circle><circle r="5" cx="1459.42" cy="61.65" fill="rgba(26, 132, 38, 1)"></circle><circle r="5" cx="1396.57" cy="226.15" fill="rgba(26, 132, 38, 1)"></circle><circle r="5" cx="1456.42" cy="412.39" fill="rgba(26, 132, 38, 1)"></circle><circle r="5" cx="1418.54" cy="513.62" fill="rgba(26, 132, 38, 1)"></circle><circle r="5" cx="1449.26" cy="694.94" fill="rgba(26, 132, 38, 1)"></circle><circle r="5" cx="1588.11" cy="-83.2" fill="rgba(26, 132, 38, 1)"></circle><circle r="5" cx="1547.74" cy="104.05" fill="rgba(26, 132, 38, 1)"></circle><circle r="5" cx="1568.73" cy="237.07" fill="rgba(26, 132, 38, 1)"></circle><circle r="5" cx="1584.91" cy="403.74" fill="rgba(26, 132, 38, 1)"></circle><circle r="5" cx="1582.3" cy="525.82" fill="rgba(26, 132, 38, 1)"></circle><circle r="5" cx="1542.69" cy="691.88" fill="rgba(26, 132, 38, 1)"></circle><path d="M70.08 561.51L70.08 561.51" stroke="hsl(127.10000000000002, 100%, 65%)" stroke-width="1.5"></path><path d="M70.08 561.51L76.04 647.16" stroke="hsl(127.10000000000002, 100%, 65%)" stroke-width="1.5"></path><path d="M70.08 561.51L-84.48 561.53" stroke="hsl(127.10000000000002, 100%, 65%)" stroke-width="1.5"></path><path d="M997.95 495.64L997.95 495.64" stroke="hsl(127.10000000000002, 100%, 65%)" stroke-width="1.5"></path><path d="M997.95 495.64L988.37 366.51" stroke="hsl(127.10000000000002, 100%, 65%)" stroke-width="1.5"></path><path d="M997.95 495.64L1135.5 552.32" stroke="hsl(127.10000000000002, 100%, 65%)" stroke-width="1.5"></path><path d="M997.95 495.64L825.44 546.93" stroke="hsl(127.10000000000002, 100%, 65%)" stroke-width="1.5"></path><path d="M997.95 495.64L963.87 707.92" stroke="hsl(127.10000000000002, 100%, 65%)" stroke-width="1.5"></path><path d="M997.95 495.64L804.51 384.79" stroke="hsl(127.10000000000002, 100%, 65%)" stroke-width="1.5"></path><path d="M997.95 495.64L856.15 671.18" stroke="hsl(127.10000000000002, 100%, 65%)" stroke-width="1.5"></path><path d="M1160.78 59.63L1160.78 59.63" stroke="hsl(127.10000000000002, 100%, 65%)" stroke-width="1.5"></path><path d="M1160.78 59.63L1299.74 50.68" stroke="hsl(127.10000000000002, 100%, 65%)" stroke-width="1.5"></path><path d="M1160.78 59.63L1242.75 -58.39" stroke="hsl(127.10000000000002, 100%, 65%)" stroke-width="1.5"></path><path d="M1160.78 59.63L1159.99 213.87" stroke="hsl(127.10000000000002, 100%, 65%)" stroke-width="1.5"></path><path d="M1160.78 59.63L1011.78 226.3" stroke="hsl(127.10000000000002, 100%, 65%)" stroke-width="1.5"></path><path d="M1160.78 59.63L1403.36 90.94" stroke="hsl(127.10000000000002, 100%, 65%)" stroke-width="1.5"></path><path d="M1242.75 -58.39L1242.75 -58.39" stroke="hsl(127.10000000000002, 100%, 65%)" stroke-width="1.5"></path><path d="M1242.75 -58.39L1299.74 50.68" stroke="hsl(127.10000000000002, 100%, 65%)" stroke-width="1.5"></path><path d="M1242.75 -58.39L1437.54 -81.06" stroke="hsl(127.10000000000002, 100%, 65%)" stroke-width="1.5"></path><path d="M1242.75 -58.39L1403.36 90.94" stroke="hsl(127.10000000000002, 100%, 65%)" stroke-width="1.5"></path><path d="M1299.74 50.68L1299.74 50.68" stroke="hsl(127.10000000000002, 100%, 65%)" stroke-width="1.5"></path><path d="M1299.74 50.68L1403.36 90.94" stroke="hsl(127.10000000000002, 100%, 65%)" stroke-width="1.5"></path><path d="M1435.3 233.56L1435.3 233.56" stroke="hsl(127.10000000000002, 100%, 65%)" stroke-width="1.5"></path><path d="M1435.3 233.56L1419.93 351.49" stroke="hsl(127.10000000000002, 100%, 65%)" stroke-width="1.5"></path><path d="M1435.3 233.56L1403.36 90.94" stroke="hsl(127.10000000000002, 100%, 65%)" stroke-width="1.5"></path><path d="M1435.3 233.56L1603.34 379.37" stroke="hsl(127.10000000000002, 100%, 65%)" stroke-width="1.5"></path><path d="M1435.3 233.56L1299.74 50.68" stroke="hsl(127.10000000000002, 100%, 65%)" stroke-width="1.5"></path><path d="M1435.3 233.56L1598.59 40.95" stroke="hsl(127.10000000000002, 100%, 65%)" stroke-width="1.5"></path><path d="M1435.3 233.56L1159.99 213.87" stroke="hsl(127.10000000000002, 100%, 65%)" stroke-width="1.5"></path><path d="M1419.93 351.49L1419.93 351.49" stroke="hsl(127.10000000000002, 100%, 65%)" stroke-width="1.5"></path><path d="M1419.93 351.49L1603.34 379.37" stroke="hsl(127.10000000000002, 100%, 65%)" stroke-width="1.5"></path><path d="M1419.93 351.49L1279.36 492.03" stroke="hsl(127.10000000000002, 100%, 65%)" stroke-width="1.5"></path><path d="M1419.93 351.49L1453.84 560.41" stroke="hsl(127.10000000000002, 100%, 65%)" stroke-width="1.5"></path><path d="M1419.93 351.49L1610.02 489.07" stroke="hsl(127.10000000000002, 100%, 65%)" stroke-width="1.5"></path><path d="M1419.93 351.49L1403.36 90.94" stroke="hsl(127.10000000000002, 100%, 65%)" stroke-width="1.5"></path><path d="M-84.48 561.53L-84.48 561.53" stroke="hsl(127.10000000000002, 100%, 65%)" stroke-width="1.5"></path><path d="M-84.48 561.53L76.04 647.16" stroke="hsl(127.10000000000002, 100%, 65%)" stroke-width="1.5"></path><path d="M-84.48 561.53L244.26 520.02" stroke="hsl(127.10000000000002, 100%, 65%)" stroke-width="1.5"></path><path d="M76.04 647.16L76.04 647.16" stroke="hsl(127.10000000000002, 100%, 65%)" stroke-width="1.5"></path><path d="M76.04 647.16L230.45 687.54" stroke="hsl(127.10000000000002, 100%, 65%)" stroke-width="1.5"></path><path d="M244.26 520.02L244.26 520.02" stroke="hsl(127.10000000000002, 100%, 65%)" stroke-width="1.5"></path><path d="M244.26 520.02L339.46 559.5" stroke="hsl(127.10000000000002, 100%, 65%)" stroke-width="1.5"></path><path d="M244.26 520.02L230.45 687.54" stroke="hsl(127.10000000000002, 100%, 65%)" stroke-width="1.5"></path><path d="M244.26 520.02L70.08 561.51" stroke="hsl(127.10000000000002, 100%, 65%)" stroke-width="1.5"></path><path d="M230.45 687.54L230.45 687.54" stroke="hsl(127.10000000000002, 100%, 65%)" stroke-width="1.5"></path><path d="M230.45 687.54L348.11 711.54" stroke="hsl(127.10000000000002, 100%, 65%)" stroke-width="1.5"></path><path d="M230.45 687.54L339.46 559.5" stroke="hsl(127.10000000000002, 100%, 65%)" stroke-width="1.5"></path><path d="M230.45 687.54L70.08 561.51" stroke="hsl(127.10000000000002, 100%, 65%)" stroke-width="1.5"></path><path d="M339.46 559.5L339.46 559.5" stroke="hsl(127.10000000000002, 100%, 65%)" stroke-width="1.5"></path><path d="M339.46 559.5L348.11 711.54" stroke="hsl(127.10000000000002, 100%, 65%)" stroke-width="1.5"></path><path d="M339.46 559.5L528.46 646.11" stroke="hsl(127.10000000000002, 100%, 65%)" stroke-width="1.5"></path><path d="M339.46 559.5L70.08 561.51" stroke="hsl(127.10000000000002, 100%, 65%)" stroke-width="1.5"></path><path d="M348.11 711.54L348.11 711.54" stroke="hsl(127.10000000000002, 100%, 65%)" stroke-width="1.5"></path><path d="M348.11 711.54L528.46 646.11" stroke="hsl(127.10000000000002, 100%, 65%)" stroke-width="1.5"></path><path d="M348.11 711.54L244.26 520.02" stroke="hsl(127.10000000000002, 100%, 65%)" stroke-width="1.5"></path><path d="M528.46 646.11L528.46 646.11" stroke="hsl(127.10000000000002, 100%, 65%)" stroke-width="1.5"></path><path d="M528.46 646.11L692.98 653.52" stroke="hsl(127.10000000000002, 100%, 65%)" stroke-width="1.5"></path><path d="M528.46 646.11L704.84 557.1" stroke="hsl(127.10000000000002, 100%, 65%)" stroke-width="1.5"></path><path d="M528.46 646.11L230.45 687.54" stroke="hsl(127.10000000000002, 100%, 65%)" stroke-width="1.5"></path><path d="M528.46 646.11L244.26 520.02" stroke="hsl(127.10000000000002, 100%, 65%)" stroke-width="1.5"></path><path d="M704.84 557.1L704.84 557.1" stroke="hsl(127.10000000000002, 100%, 65%)" stroke-width="1.5"></path><path d="M704.84 557.1L692.98 653.52" stroke="hsl(127.10000000000002, 100%, 65%)" stroke-width="1.5"></path><path d="M704.84 557.1L825.44 546.93" stroke="hsl(127.10000000000002, 100%, 65%)" stroke-width="1.5"></path><path d="M704.84 557.1L856.15 671.18" stroke="hsl(127.10000000000002, 100%, 65%)" stroke-width="1.5"></path><path d="M692.98 653.52L692.98 653.52" stroke="hsl(127.10000000000002, 100%, 65%)" stroke-width="1.5"></path><path d="M692.98 653.52L856.15 671.18" stroke="hsl(127.10000000000002, 100%, 65%)" stroke-width="1.5"></path><path d="M804.51 384.79L804.51 384.79" stroke="hsl(127.10000000000002, 100%, 65%)" stroke-width="1.5"></path><path d="M804.51 384.79L825.44 546.93" stroke="hsl(127.10000000000002, 100%, 65%)" stroke-width="1.5"></path><path d="M804.51 384.79L988.37 366.51" stroke="hsl(127.10000000000002, 100%, 65%)" stroke-width="1.5"></path><path d="M804.51 384.79L704.84 557.1" stroke="hsl(127.10000000000002, 100%, 65%)" stroke-width="1.5"></path><path d="M804.51 384.79L1011.78 226.3" stroke="hsl(127.10000000000002, 100%, 65%)" stroke-width="1.5"></path><path d="M825.44 546.93L825.44 546.93" stroke="hsl(127.10000000000002, 100%, 65%)" stroke-width="1.5"></path><path d="M856.15 671.18L856.15 671.18" stroke="hsl(127.10000000000002, 100%, 65%)" stroke-width="1.5"></path><path d="M856.15 671.18L963.87 707.92" stroke="hsl(127.10000000000002, 100%, 65%)" stroke-width="1.5"></path><path d="M856.15 671.18L825.44 546.93" stroke="hsl(127.10000000000002, 100%, 65%)" stroke-width="1.5"></path><path d="M1011.78 226.3L1011.78 226.3" stroke="hsl(127.10000000000002, 100%, 65%)" stroke-width="1.5"></path><path d="M1011.78 226.3L988.37 366.51" stroke="hsl(127.10000000000002, 100%, 65%)" stroke-width="1.5"></path><path d="M1011.78 226.3L1159.99 213.87" stroke="hsl(127.10000000000002, 100%, 65%)" stroke-width="1.5"></path><path d="M1011.78 226.3L997.95 495.64" stroke="hsl(127.10000000000002, 100%, 65%)" stroke-width="1.5"></path><path d="M988.37 366.51L988.37 366.51" stroke="hsl(127.10000000000002, 100%, 65%)" stroke-width="1.5"></path><path d="M988.37 366.51L1159.99 213.87" stroke="hsl(127.10000000000002, 100%, 65%)" stroke-width="1.5"></path><path d="M988.37 366.51L1135.5 552.32" stroke="hsl(127.10000000000002, 100%, 65%)" stroke-width="1.5"></path><path d="M988.37 366.51L825.44 546.93" stroke="hsl(127.10000000000002, 100%, 65%)" stroke-width="1.5"></path><path d="M963.87 707.92L963.87 707.92" stroke="hsl(127.10000000000002, 100%, 65%)" stroke-width="1.5"></path><path d="M1159.99 213.87L1159.99 213.87" stroke="hsl(127.10000000000002, 100%, 65%)" stroke-width="1.5"></path><path d="M1135.5 552.32L1135.5 552.32" stroke="hsl(127.10000000000002, 100%, 65%)" stroke-width="1.5"></path><path d="M1135.5 552.32L1124.19 696.96" stroke="hsl(127.10000000000002, 100%, 65%)" stroke-width="1.5"></path><path d="M1135.5 552.32L1279.36 492.03" stroke="hsl(127.10000000000002, 100%, 65%)" stroke-width="1.5"></path><path d="M1135.5 552.32L1239.01 681.61" stroke="hsl(127.10000000000002, 100%, 65%)" stroke-width="1.5"></path><path d="M1135.5 552.32L963.87 707.92" stroke="hsl(127.10000000000002, 100%, 65%)" stroke-width="1.5"></path><path d="M1124.19 696.96L1124.19 696.96" stroke="hsl(127.10000000000002, 100%, 65%)" stroke-width="1.5"></path><path d="M1124.19 696.96L1239.01 681.61" stroke="hsl(127.10000000000002, 100%, 65%)" stroke-width="1.5"></path><path d="M1124.19 696.96L963.87 707.92" stroke="hsl(127.10000000000002, 100%, 65%)" stroke-width="1.5"></path><path d="M1124.19 696.96L997.95 495.64" stroke="hsl(127.10000000000002, 100%, 65%)" stroke-width="1.5"></path><path d="M1279.36 492.03L1279.36 492.03" stroke="hsl(127.10000000000002, 100%, 65%)" stroke-width="1.5"></path><path d="M1279.36 492.03L1453.84 560.41" stroke="hsl(127.10000000000002, 100%, 65%)" stroke-width="1.5"></path><path d="M1239.01 681.61L1239.01 681.61" stroke="hsl(127.10000000000002, 100%, 65%)" stroke-width="1.5"></path><path d="M1437.54 -81.06L1437.54 -81.06" stroke="hsl(127.10000000000002, 100%, 65%)" stroke-width="1.5"></path><path d="M1437.54 -81.06L1569.5 -94.97" stroke="hsl(127.10000000000002, 100%, 65%)" stroke-width="1.5"></path><path d="M1437.54 -81.06L1403.36 90.94" stroke="hsl(127.10000000000002, 100%, 65%)" stroke-width="1.5"></path><path d="M1437.54 -81.06L1299.74 50.68" stroke="hsl(127.10000000000002, 100%, 65%)" stroke-width="1.5"></path><path d="M1403.36 90.94L1403.36 90.94" stroke="hsl(127.10000000000002, 100%, 65%)" stroke-width="1.5"></path><path d="M1403.36 90.94L1598.59 40.95" stroke="hsl(127.10000000000002, 100%, 65%)" stroke-width="1.5"></path><path d="M1453.84 560.41L1453.84 560.41" stroke="hsl(127.10000000000002, 100%, 65%)" stroke-width="1.5"></path><path d="M1453.84 560.41L1451.22 656.14" stroke="hsl(127.10000000000002, 100%, 65%)" stroke-width="1.5"></path><path d="M1453.84 560.41L1610.02 489.07" stroke="hsl(127.10000000000002, 100%, 65%)" stroke-width="1.5"></path><path d="M1451.22 656.14L1451.22 656.14" stroke="hsl(127.10000000000002, 100%, 65%)" stroke-width="1.5"></path><path d="M1451.22 656.14L1587.24 697.09" stroke="hsl(127.10000000000002, 100%, 65%)" stroke-width="1.5"></path><path d="M1451.22 656.14L1239.01 681.61" stroke="hsl(127.10000000000002, 100%, 65%)" stroke-width="1.5"></path><path d="M1569.5 -94.97L1569.5 -94.97" stroke="hsl(127.10000000000002, 100%, 65%)" stroke-width="1.5"></path><path d="M1569.5 -94.97L1598.59 40.95" stroke="hsl(127.10000000000002, 100%, 65%)" stroke-width="1.5"></path><path d="M1569.5 -94.97L1403.36 90.94" stroke="hsl(127.10000000000002, 100%, 65%)" stroke-width="1.5"></path><path d="M1598.59 40.95L1598.59 40.95" stroke="hsl(127.10000000000002, 100%, 65%)" stroke-width="1.5"></path><path d="M1598.59 40.95L1437.54 -81.06" stroke="hsl(127.10000000000002, 100%, 65%)" stroke-width="1.5"></path><path d="M1598.59 40.95L1299.74 50.68" stroke="hsl(127.10000000000002, 100%, 65%)" stroke-width="1.5"></path><path d="M1598.59 40.95L1603.34 379.37" stroke="hsl(127.10000000000002, 100%, 65%)" stroke-width="1.5"></path><path d="M1603.34 379.37L1603.34 379.37" stroke="hsl(127.10000000000002, 100%, 65%)" stroke-width="1.5"></path><path d="M1603.34 379.37L1610.02 489.07" stroke="hsl(127.10000000000002, 100%, 65%)" stroke-width="1.5"></path><path d="M1603.34 379.37L1453.84 560.41" stroke="hsl(127.10000000000002, 100%, 65%)" stroke-width="1.5"></path><path d="M1610.02 489.07L1610.02 489.07" stroke="hsl(127.10000000000002, 100%, 65%)" stroke-width="1.5"></path><path d="M1610.02 489.07L1587.24 697.09" stroke="hsl(127.10000000000002, 100%, 65%)" stroke-width="1.5"></path><path d="M1610.02 489.07L1451.22 656.14" stroke="hsl(127.10000000000002, 100%, 65%)" stroke-width="1.5"></path><path d="M1610.02 489.07L1435.3 233.56" stroke="hsl(127.10000000000002, 100%, 65%)" stroke-width="1.5"></path><path d="M1587.24 697.09L1587.24 697.09" stroke="hsl(127.10000000000002, 100%, 65%)" stroke-width="1.5"></path><path d="M1587.24 697.09L1453.84 560.41" stroke="hsl(127.10000000000002, 100%, 65%)" stroke-width="1.5"></path><path d="M1587.24 697.09L1603.34 379.37" stroke="hsl(127.10000000000002, 100%, 65%)" stroke-width="1.5"></path><circle r="25" cx="70.08" cy="561.51" fill="url(&quot;#SvgjsRadialGradient1011&quot;)"></circle><circle r="25" cx="997.95" cy="495.64" fill="url(&quot;#SvgjsRadialGradient1011&quot;)"></circle><circle r="25" cx="1160.78" cy="59.63" fill="url(&quot;#SvgjsRadialGradient1011&quot;)"></circle><circle r="25" cx="1242.75" cy="-58.39" fill="url(&quot;#SvgjsRadialGradient1011&quot;)"></circle><circle r="25" cx="1299.74" cy="50.68" fill="url(&quot;#SvgjsRadialGradient1011&quot;)"></circle><circle r="25" cx="1435.3" cy="233.56" fill="url(&quot;#SvgjsRadialGradient1011&quot;)"></circle><circle r="25" cx="1419.93" cy="351.49" fill="url(&quot;#SvgjsRadialGradient1011&quot;)"></circle><circle r="5" cx="-84.48" cy="561.53" fill="#80ff8f"></circle><circle r="5" cx="76.04" cy="647.16" fill="#80ff8f"></circle><circle r="5" cx="244.26" cy="520.02" fill="#80ff8f"></circle><circle r="5" cx="230.45" cy="687.54" fill="#80ff8f"></circle><circle r="5" cx="339.46" cy="559.5" fill="#80ff8f"></circle><circle r="5" cx="348.11" cy="711.54" fill="#80ff8f"></circle><circle r="5" cx="528.46" cy="646.11" fill="#80ff8f"></circle><circle r="5" cx="704.84" cy="557.1" fill="#80ff8f"></circle><circle r="5" cx="692.98" cy="653.52" fill="#80ff8f"></circle><circle r="5" cx="804.51" cy="384.79" fill="#80ff8f"></circle><circle r="5" cx="825.44" cy="546.93" fill="#80ff8f"></circle><circle r="5" cx="856.15" cy="671.18" fill="#80ff8f"></circle><circle r="5" cx="1011.78" cy="226.3" fill="#80ff8f"></circle><circle r="5" cx="988.37" cy="366.51" fill="#80ff8f"></circle><circle r="5" cx="963.87" cy="707.92" fill="#80ff8f"></circle><circle r="5" cx="1159.99" cy="213.87" fill="#80ff8f"></circle><circle r="5" cx="1135.5" cy="552.32" fill="#80ff8f"></circle><circle r="5" cx="1124.19" cy="696.96" fill="#80ff8f"></circle><circle r="5" cx="1279.36" cy="492.03" fill="#80ff8f"></circle><circle r="5" cx="1239.01" cy="681.61" fill="#80ff8f"></circle><circle r="5" cx="1437.54" cy="-81.06" fill="#80ff8f"></circle><circle r="5" cx="1403.36" cy="90.94" fill="#80ff8f"></circle><circle r="5" cx="1453.84" cy="560.41" fill="#80ff8f"></circle><circle r="5" cx="1451.22" cy="656.14" fill="#80ff8f"></circle><circle r="5" cx="1569.5" cy="-94.97" fill="#80ff8f"></circle><circle r="5" cx="1598.59" cy="40.95" fill="#80ff8f"></circle><circle r="5" cx="1603.34" cy="379.37" fill="#80ff8f"></circle><circle r="5" cx="1610.02" cy="489.07" fill="#80ff8f"></circle><circle r="5" cx="1587.24" cy="697.09" fill="#80ff8f"></circle></g><defs><mask id="SvgjsMask1010"><rect width="1440" height="560" fill="#ffffff"></rect></mask><radialGradient id="SvgjsRadialGradient1011"><stop stop-color="#ffffff" offset="0.1"></stop><stop stop-color="rgba(0, 255, 30, 1)" offset="0.2"></stop><stop stop-color="rgba(0, 255, 30, 0)" offset="1"></stop></radialGradient></defs></svg>